<svg xmlns="http://www.w3.org/2000/svg" viewBox="0 0 120 120" xml:space="preserve"><path fill="#1A2559" d="M26.3 40.798h14.251v-14.25H26.3v14.25zm3-11.252h8.25v8.252H29.3v-8.252zm30.001-2.998v14.25h14.25v-14.25h-14.25zM62.3 37.799v-8.251h8.249l.002 8.251H62.3zm-36 37.998h14.251V61.549H26.3v14.248zm3-11.249h8.25v8.25H29.3v-8.25z"/><circle fill="#FBCF26" cx="50.301" cy="51.298" r="8"/><path fill="#1A2559" d="m50.338 51.402 42.488 14.062-12.563 4.673 10.409 10.409L80.551 90.67 70.105 80.224l-4.867 12.309-14.9-41.131zm30.213 35.023 5.878-5.878-11.592-11.59 8.937-3.328-28.51-9.436 10.097 27.87 3.634-9.19 11.556 11.552zM31.967 54.936h2.708v-2.708h-2.708v2.708zm0-4.611h2.708v-2.708h-2.708v2.708zm0-4.609h2.708v-2.709h-2.708v2.709zm0 13.83h2.708v-2.708h-2.708v2.708zm33-16.539v2.709h2.708v-2.709h-2.708zm0 11.929h2.708v-2.708h-2.708v2.708zm0-4.611h2.708v-2.708h-2.708v2.708zm-9.584-15.528h2.708v-2.709h-2.708v2.709zm-13.831 0h2.709v-2.709h-2.709v2.709zm9.22 0h2.708v-2.709h-2.708v2.709zm-4.61 0h2.708v-2.709h-2.708v2.709zm4.61 35h2.708v-2.709h-2.708v2.709zm-4.61 0h2.708v-2.709h-2.708v2.709zm-4.61 0h2.709v-2.709h-2.709v2.709z"/></svg>